<svg width="1080" height="1080" viewBox="0 0 1080 1080" fill="none" xmlns="http://www.w3.org/2000/svg">
<g clip-path="url(#clip0_14_10)">
<rect width="1080" height="1080" fill="black"/>
<path d="M416.188 90.4494L541.572 22.2406L995.963 285.045L995.963 412.435L416.188 90.4494Z" fill="white"/>
<path d="M541.017 22.2407L533.548 152.64L262.718 307.113L144.356 243.919L541.017 22.2407Z" fill="white"/>
<path d="M534.244 1057.02L534.244 926.008L803.374 778.556L918.727 837.737L534.244 1057.02Z" fill="white"/>
<path d="M415.185 390.495L540.569 322.286L994.96 585.09L994.96 712.48L415.185 390.495Z" fill="white"/>
<path d="M651.91 990.204L527.529 1056.41L81.1625 800.624L81.1625 678.249L651.91 990.204Z" fill="white"/>
<path d="M651.737 694.433L527.356 760.636L80.9899 504.852L80.9899 382.478L651.737 694.433Z" fill="white"/>
</g>
<defs>
<clipPath id="clip0_14_10">
<rect width="1080" height="1080" fill="white"/>
</clipPath>
</defs>
</svg>
